<svg width="180" height="20" viewBox="0 0 1304 150" fill="none" xmlns="http://www.w3.org/2000/svg">
<path d="M95.8352 50.5568C95.2197 48.0473 94.2491 45.8456 92.9233 43.9517C91.5975 42.0104 89.9403 40.3769 87.9517 39.0511C86.0104 37.678 83.7377 36.66 81.1335 35.9972C78.5767 35.2869 75.7595 34.9318 72.6818 34.9318C66.053 34.9318 60.3949 36.518 55.7074 39.6903C51.0672 42.8627 47.5161 47.4318 45.054 53.3977C42.6392 59.3636 41.4318 66.5606 41.4318 74.9886C41.4318 83.5114 42.5919 90.803 44.9119 96.8636C47.232 102.924 50.6884 107.564 55.2812 110.784C59.8741 114.004 65.5795 115.614 72.3977 115.614C78.411 115.614 83.4063 114.738 87.3835 112.986C91.4081 111.234 94.4148 108.748 96.4034 105.528C98.392 102.309 99.3864 98.5208 99.3864 94.1648L106.205 94.875H72.9659V66.75H137.455V86.9205C137.455 100.178 134.637 111.518 129.003 120.94C123.416 130.315 115.698 137.512 105.849 142.531C96.0483 147.503 84.803 149.989 72.1136 149.989C57.9564 149.989 45.5275 146.982 34.8267 140.969C24.1259 134.955 15.7689 126.385 9.75568 115.259C3.78977 104.132 0.806819 90.8977 0.806819 75.5568C0.806819 63.5303 2.62974 52.8769 6.27557 43.5966C9.96875 34.3163 15.0824 26.4801 21.6165 20.0881C28.1506 13.6487 35.7027 8.79545 44.2727 5.5284C52.8428 2.21401 62.0284 0.556813 71.8295 0.556813C80.447 0.556813 88.4489 1.78788 95.8352 4.25C103.269 6.66477 109.827 10.1212 115.509 14.6193C121.238 19.0701 125.854 24.3494 129.358 30.4574C132.862 36.5653 134.992 43.2651 135.75 50.5568H95.8352ZM155.867 148V2.54545H218.651C229.447 2.54545 238.893 4.51041 246.989 8.44034C255.086 12.3703 261.383 18.0284 265.881 25.4148C270.379 32.8011 272.629 41.6553 272.629 51.9773C272.629 62.3939 270.308 71.1771 265.668 78.3267C261.076 85.4763 254.612 90.8741 246.279 94.5199C237.993 98.1657 228.31 99.9886 217.231 99.9886H179.731V69.3068H209.276C213.916 69.3068 217.87 68.7386 221.137 67.6023C224.451 66.4186 226.985 64.5483 228.737 61.9915C230.536 59.4347 231.435 56.0966 231.435 51.9773C231.435 47.8106 230.536 44.4252 228.737 41.821C226.985 39.1695 224.451 37.2282 221.137 35.9972C217.87 34.7187 213.916 34.0795 209.276 34.0795H195.356V148H155.867ZM241.094 81.2386L277.458 148H234.56L199.049 81.2386H241.094ZM327.245 148H284.631L332.643 2.54545H386.62L434.631 148H392.018L360.2 42.6023H359.063L327.245 148ZM319.29 90.6136H399.404V120.159H319.29V90.6136ZM448.641 148V2.54545H550.913V34.3636H488.129V59.3636H544.663V91.1818H488.129V148H448.641ZM565.438 148V2.54545H670.267V34.3636H604.926V59.3636H664.869V91.1818H604.926V116.182H669.983V148H565.438ZM808.104 48C807.726 43.2652 805.95 39.572 802.778 36.9205C799.653 34.2689 794.894 32.9432 788.502 32.9432C784.43 32.9432 781.092 33.4403 778.488 34.4347C775.931 35.3816 774.037 36.6837 772.806 38.3409C771.575 39.9981 770.936 41.892 770.888 44.0227C770.794 45.7746 771.102 47.3608 771.812 48.7812C772.569 50.1544 773.753 51.4091 775.363 52.5455C776.973 53.6345 779.032 54.6288 781.542 55.5284C784.051 56.428 787.034 57.233 790.491 57.9432L802.423 60.5C810.472 62.2045 817.361 64.4536 823.09 67.2472C828.819 70.0407 833.507 73.3314 837.153 77.1193C840.799 80.8598 843.474 85.0739 845.178 89.7614C846.93 94.4489 847.83 99.5625 847.877 105.102C847.83 114.667 845.439 122.763 840.704 129.392C835.969 136.021 829.198 141.063 820.391 144.52C811.632 147.976 801.097 149.705 788.786 149.705C776.144 149.705 765.112 147.834 755.69 144.094C746.315 140.353 739.023 134.6 733.815 126.835C728.654 119.023 726.049 109.032 726.002 96.8636H763.502C763.739 101.314 764.852 105.055 766.84 108.085C768.829 111.116 771.622 113.412 775.221 114.974C778.867 116.537 783.199 117.318 788.218 117.318C792.432 117.318 795.96 116.797 798.8 115.756C801.641 114.714 803.796 113.27 805.263 111.423C806.731 109.577 807.489 107.47 807.536 105.102C807.489 102.877 806.755 100.936 805.335 99.2784C803.961 97.5739 801.689 96.0587 798.516 94.733C795.344 93.3598 791.059 92.0814 785.661 90.8977L771.173 87.7727C758.294 84.9792 748.138 80.3153 740.704 73.7812C733.317 67.1998 729.648 58.2273 729.695 46.8636C729.648 37.6307 732.11 29.5578 737.082 22.6449C742.101 15.6847 749.037 10.2633 757.891 6.38068C766.793 2.4981 776.996 0.556813 788.502 0.556813C800.245 0.556813 810.401 2.52178 818.971 6.4517C827.541 10.3816 834.146 15.9214 838.786 23.071C843.474 30.1733 845.841 38.483 845.888 48H808.104ZM862.898 148V2.54545H902.387V116.182H961.194V148H862.898ZM1014.94 148H972.327L1020.34 2.54545H1074.32L1122.33 148H1079.71L1047.89 42.6023H1046.76L1014.94 148ZM1006.99 90.6136H1087.1V120.159H1006.99V90.6136ZM1136.34 2.54545H1185.48L1219.29 84.9318H1221L1254.8 2.54545H1303.95V148H1265.31V63.9091H1264.18L1231.79 146.864H1208.5L1176.11 63.3409H1174.97V148H1136.34V2.54545Z" fill="black"/>
</svg>
