<svg width="800" height="100" viewBox="0 0 1876 150" fill="none" xmlns="http://www.w3.org/2000/svg">
<path d="M126.227 2.54545V148H93.2727L40.7159 71.5795H39.8636V148H0.375V2.54545H33.8977L85.6023 78.6818H86.7386V2.54545H126.227ZM144.906 148V2.54545H247.179V34.3636H184.395V59.3636H240.929V91.1818H184.395V148H144.906ZM257.726 34.3636V2.54545H384.146V34.3636H340.396V148H301.476V34.3636H257.726ZM574.647 57.0909H534.59C534.306 53.7765 533.549 50.7699 532.317 48.071C531.134 45.3722 529.477 43.0521 527.346 41.1108C525.263 39.1222 522.729 37.607 519.746 36.5653C516.763 35.4763 513.378 34.9318 509.59 34.9318C502.961 34.9318 497.351 36.5417 492.758 39.7614C488.212 42.9811 484.756 47.5975 482.388 53.6108C480.068 59.6241 478.908 66.8447 478.908 75.2727C478.908 84.1742 480.092 91.6316 482.46 97.6449C484.874 103.611 488.354 108.109 492.9 111.139C497.445 114.122 502.914 115.614 509.306 115.614C512.952 115.614 516.219 115.164 519.107 114.264C521.996 113.317 524.505 111.968 526.636 110.216C528.766 108.464 530.495 106.357 531.82 103.895C533.193 101.385 534.117 98.5682 534.59 95.4432L574.647 95.7273C574.174 101.883 572.445 108.156 569.462 114.548C566.479 120.893 562.242 126.764 556.749 132.162C551.304 137.512 544.557 141.821 536.508 145.088C528.459 148.355 519.107 149.989 508.454 149.989C495.102 149.989 483.122 147.124 472.516 141.395C461.958 135.666 453.601 127.238 447.445 116.111C441.337 104.984 438.283 91.3712 438.283 75.2727C438.283 59.0795 441.408 45.4432 447.658 34.3636C453.908 23.2367 462.336 14.8324 472.942 9.15056C483.549 3.4214 495.386 0.556813 508.454 0.556813C517.639 0.556813 526.091 1.81155 533.809 4.32101C541.527 6.83049 548.298 10.5 554.121 15.3295C559.945 20.1117 564.633 26.0066 568.184 33.0142C571.735 40.0218 573.889 48.0473 574.647 57.0909ZM733.472 75.2727C733.472 91.4659 730.323 105.126 724.026 116.253C717.728 127.332 709.229 135.737 698.528 141.466C687.828 147.148 675.896 149.989 662.733 149.989C649.475 149.989 637.496 147.124 626.795 141.395C616.142 135.618 607.667 127.19 601.369 116.111C595.119 104.984 591.994 91.3712 591.994 75.2727C591.994 59.0795 595.119 45.4432 601.369 34.3636C607.667 23.2367 616.142 14.8324 626.795 9.15056C637.496 3.4214 649.475 0.556813 662.733 0.556813C675.896 0.556813 687.828 3.4214 698.528 9.15056C709.229 14.8324 717.728 23.2367 724.026 34.3636C730.323 45.4432 733.472 59.0795 733.472 75.2727ZM692.847 75.2727C692.847 66.5606 691.687 59.2216 689.366 53.2557C687.094 47.2424 683.708 42.697 679.21 39.6193C674.759 36.4943 669.267 34.9318 662.733 34.9318C656.199 34.9318 650.683 36.4943 646.185 39.6193C641.734 42.697 638.348 47.2424 636.028 53.2557C633.756 59.2216 632.619 66.5606 632.619 75.2727C632.619 83.9848 633.756 91.3475 636.028 97.3608C638.348 103.327 641.734 107.872 646.185 110.997C650.683 114.075 656.199 115.614 662.733 115.614C669.267 115.614 674.759 114.075 679.21 110.997C683.708 107.872 687.094 103.327 689.366 97.3608C691.687 91.3475 692.847 83.9848 692.847 75.2727ZM751.742 148V2.54545H791.231V116.182H850.038V148H751.742ZM866 148V2.54545H905.489V116.182H964.295V148H866ZM980.258 148V2.54545H1085.09V34.3636H1019.75V59.3636H1079.69V91.1818H1019.75V116.182H1084.8V148H980.258ZM1240.47 57.0909H1200.41C1200.13 53.7765 1199.37 50.7699 1198.14 48.071C1196.95 45.3722 1195.3 43.0521 1193.17 41.1108C1191.08 39.1222 1188.55 37.607 1185.57 36.5653C1182.58 35.4763 1179.2 34.9318 1175.41 34.9318C1168.78 34.9318 1163.17 36.5417 1158.58 39.7614C1154.03 42.9811 1150.58 47.5975 1148.21 53.6108C1145.89 59.6241 1144.73 66.8447 1144.73 75.2727C1144.73 84.1742 1145.91 91.6316 1148.28 97.6449C1150.69 103.611 1154.17 108.109 1158.72 111.139C1163.27 114.122 1168.73 115.614 1175.13 115.614C1178.77 115.614 1182.04 115.164 1184.93 114.264C1187.82 113.317 1190.33 111.968 1192.46 110.216C1194.59 108.464 1196.31 106.357 1197.64 103.895C1199.01 101.385 1199.94 98.5682 1200.41 95.4432L1240.47 95.7273C1239.99 101.883 1238.27 108.156 1235.28 114.548C1232.3 120.893 1228.06 126.764 1222.57 132.162C1217.12 137.512 1210.38 141.821 1202.33 145.088C1194.28 148.355 1184.93 149.989 1174.27 149.989C1160.92 149.989 1148.94 147.124 1138.34 141.395C1127.78 135.666 1119.42 127.238 1113.27 116.111C1107.16 104.984 1104.1 91.3712 1104.1 75.2727C1104.1 59.0795 1107.23 45.4432 1113.48 34.3636C1119.73 23.2367 1128.16 14.8324 1138.76 9.15056C1149.37 3.4214 1161.21 0.556813 1174.27 0.556813C1183.46 0.556813 1191.91 1.81155 1199.63 4.32101C1207.35 6.83049 1214.12 10.5 1219.94 15.3295C1225.77 20.1117 1230.45 26.0066 1234 33.0142C1237.56 40.0218 1239.71 48.0473 1240.47 57.0909ZM1254.41 34.3636V2.54545H1380.83V34.3636H1337.08V148H1298.16V34.3636H1254.41ZM1435.18 2.54545V148H1395.69V2.54545H1435.18ZM1594.8 75.2727C1594.8 91.4659 1591.65 105.126 1585.35 116.253C1579.06 127.332 1570.56 135.737 1559.86 141.466C1549.16 147.148 1537.22 149.989 1524.06 149.989C1510.8 149.989 1498.82 147.124 1488.12 141.395C1477.47 135.618 1468.99 127.19 1462.7 116.111C1456.45 104.984 1453.32 91.3712 1453.32 75.2727C1453.32 59.0795 1456.45 45.4432 1462.7 34.3636C1468.99 23.2367 1477.47 14.8324 1488.12 9.15056C1498.82 3.4214 1510.8 0.556813 1524.06 0.556813C1537.22 0.556813 1549.16 3.4214 1559.86 9.15056C1570.56 14.8324 1579.06 23.2367 1585.35 34.3636C1591.65 45.4432 1594.8 59.0795 1594.8 75.2727ZM1554.17 75.2727C1554.17 66.5606 1553.01 59.2216 1550.69 53.2557C1548.42 47.2424 1545.04 42.697 1540.54 39.6193C1536.09 36.4943 1530.6 34.9318 1524.06 34.9318C1517.53 34.9318 1512.01 36.4943 1507.51 39.6193C1503.06 42.697 1499.68 47.2424 1497.36 53.2557C1495.08 59.2216 1493.95 66.5606 1493.95 75.2727C1493.95 83.9848 1495.08 91.3475 1497.36 97.3608C1499.68 103.327 1503.06 107.872 1507.51 110.997C1512.01 114.075 1517.53 115.614 1524.06 115.614C1530.6 115.614 1536.09 114.075 1540.54 110.997C1545.04 107.872 1548.42 103.327 1550.69 97.3608C1553.01 91.3475 1554.17 83.9848 1554.17 75.2727ZM1738.92 2.54545V148H1705.97L1653.41 71.5795H1652.56V148H1613.07V2.54545H1646.59L1698.3 78.6818H1699.43V2.54545H1738.92ZM1836.01 48C1835.63 43.2652 1833.86 39.572 1830.68 36.9205C1827.56 34.2689 1822.8 32.9432 1816.41 32.9432C1812.34 32.9432 1809 33.4403 1806.39 34.4347C1803.84 35.3816 1801.94 36.6837 1800.71 38.3409C1799.48 39.9981 1798.84 41.892 1798.79 44.0227C1798.7 45.7746 1799.01 47.3608 1799.72 48.7812C1800.48 50.1544 1801.66 51.4091 1803.27 52.5455C1804.88 53.6345 1806.94 54.6288 1809.45 55.5284C1811.96 56.428 1814.94 57.233 1818.4 57.9432L1830.33 60.5C1838.38 62.2045 1845.27 64.4536 1851 67.2472C1856.73 70.0407 1861.41 73.3314 1865.06 77.1193C1868.7 80.8598 1871.38 85.0739 1873.08 89.7614C1874.84 94.4489 1875.74 99.5625 1875.78 105.102C1875.74 114.667 1873.34 122.763 1868.61 129.392C1863.88 136.021 1857.1 141.063 1848.3 144.52C1839.54 147.976 1829 149.705 1816.69 149.705C1804.05 149.705 1793.02 147.834 1783.6 144.094C1774.22 140.353 1766.93 134.6 1761.72 126.835C1756.56 119.023 1753.96 109.032 1753.91 96.8636H1791.41C1791.65 101.314 1792.76 105.055 1794.75 108.085C1796.74 111.116 1799.53 113.412 1803.13 114.974C1806.77 116.537 1811.11 117.318 1816.12 117.318C1820.34 117.318 1823.87 116.797 1826.71 115.756C1829.55 114.714 1831.7 113.27 1833.17 111.423C1834.64 109.577 1835.4 107.47 1835.44 105.102C1835.4 102.877 1834.66 100.936 1833.24 99.2784C1831.87 97.5739 1829.59 96.0587 1826.42 94.733C1823.25 93.3598 1818.97 92.0814 1813.57 90.8977L1799.08 87.7727C1786.2 84.9792 1776.04 80.3153 1768.61 73.7812C1761.22 67.1998 1757.55 58.2273 1757.6 46.8636C1757.55 37.6307 1760.02 29.5578 1764.99 22.6449C1770.01 15.6847 1776.94 10.2633 1785.8 6.38068C1794.7 2.4981 1804.9 0.556813 1816.41 0.556813C1828.15 0.556813 1838.31 2.52178 1846.88 6.4517C1855.45 10.3816 1862.05 15.9214 1866.69 23.071C1871.38 30.1733 1873.75 38.483 1873.79 48H1836.01Z" fill="black"/>
</svg>
