<svg width="1000" height="400" viewBox="0 0 868 225" fill="none" xmlns="http://www.w3.org/2000/svg" style="
    height: 100%;
    width: 100%;
">
<path d="M123.676 72C123.108 64.8977 120.445 59.358 115.686 55.3807C110.999 51.4034 103.861 49.4148 94.2727 49.4148C88.1648 49.4148 83.1577 50.1605 79.2514 51.652C75.4162 53.0724 72.5753 55.0256 70.7287 57.5114C68.8821 59.9972 67.9233 62.8381 67.8523 66.0341C67.7102 68.6619 68.1719 71.0412 69.2372 73.1719C70.3736 75.2315 72.1491 77.1136 74.5639 78.8182C76.9787 80.4517 80.0682 81.9432 83.8324 83.2926C87.5966 84.642 92.071 85.8494 97.2557 86.9148L115.153 90.75C127.227 93.3068 137.561 96.6804 146.155 100.871C154.749 105.061 161.78 109.997 167.249 115.679C172.717 121.29 176.73 127.611 179.287 134.642C181.915 141.673 183.264 149.344 183.335 157.653C183.264 172 179.678 184.145 172.575 194.088C165.473 204.031 155.317 211.595 142.107 216.78C128.967 221.964 113.165 224.557 94.6989 224.557C75.7358 224.557 59.1875 221.751 45.054 216.141C30.9915 210.53 20.054 201.901 12.2415 190.253C4.5 178.534 0.59375 163.548 0.522728 145.295H56.7727C57.1278 151.972 58.7969 157.582 61.7798 162.128C64.7628 166.673 68.9531 170.118 74.3509 172.462C79.8196 174.805 86.3182 175.977 93.8466 175.977C100.168 175.977 105.459 175.196 109.72 173.634C113.982 172.071 117.213 169.905 119.415 167.135C121.616 164.365 122.753 161.205 122.824 157.653C122.753 154.315 121.652 151.403 119.521 148.918C117.462 146.361 114.053 144.088 109.294 142.099C104.536 140.04 98.108 138.122 90.0114 136.347L68.2784 131.659C48.9602 127.469 33.7259 120.473 22.5753 110.672C11.4957 100.8 5.99148 87.3409 6.0625 70.2955C5.99148 56.446 9.68466 44.3366 17.142 33.9673C24.6705 23.527 35.0753 15.3949 48.3565 9.57101C61.7088 3.74715 77.0142 0.835219 94.2727 0.835219C111.886 0.835219 127.121 3.78266 139.976 9.67755C152.831 15.5724 162.739 23.8821 169.699 34.6065C176.73 45.2599 180.281 57.7244 180.352 72H123.676ZM205.867 222V3.81818H265.1V174.273H353.31V222H205.867ZM433.93 222H370.01L442.027 3.81818H522.993L595.01 222H531.089L483.362 63.9034H481.657L433.93 222ZM421.998 135.92H542.169V180.239H421.998V135.92ZM616.023 3.81818H689.745L740.455 127.398H743.012L793.722 3.81818H867.444V222H809.489V95.8636H807.785L759.205 220.295H724.262L675.683 95.0114H673.978V222H616.023V3.81818Z" fill="black"/>
</svg>
